<svg xmlns="http://www.w3.org/2000/svg" width="45" height="39" viewBox="0 0 45 39">
  <defs>
    <linearGradient id="add_quiz-a" x1="20.875%" x2="76.578%" y1="44.539%" y2="54.983%">
      <stop offset="0%" stop-color="#1D59B3"/>
      <stop offset="100%" stop-color="#195BBC"/>
    </linearGradient>
    <linearGradient id="add_quiz-b" x1="7.95%" x2="88.367%" y1="7.95%" y2="88.367%">
      <stop offset=".3%" stop-color="#42A3F2"/>
      <stop offset="100%" stop-color="#42A4EB"/>
    </linearGradient>
    <linearGradient id="add_quiz-c" x1="7.95%" x2="88.367%" y1="7.95%" y2="88.367%">
      <stop offset="0%" stop-color="#42A3F2"/>
      <stop offset="100%" stop-color="#42A4EB"/>
    </linearGradient>
    <linearGradient id="add_quiz-d" x1="14.341%" x2="86.589%" y1="17.263%" y2="83.308%">
      <stop offset="0%" stop-color="#42A3F2"/>
      <stop offset="100%" stop-color="#42A4EB"/>
    </linearGradient>
  </defs>
  <g fill="none">
    <path fill="url(#add_quiz-a)" d="M40,6 L12,6 C10.9,6 10,5.1 10,4 L10,2 C10,0.9 10.9,0 12,0 L40,0 C41.1,0 42,0.9 42,2 L42,4 C42,5.1 41.1,6 40,6 Z"/>
    <path fill="url(#add_quiz-b)" d="M4,6 L2,6 C0.9,6 0,5.1 0,4 L0,2 C0,0.9 0.9,0 2,0 L4,0 C5.1,0 6,0.9 6,2 L6,4 C6,5.1 5.1,6 4,6 Z"/>
    <path fill="url(#add_quiz-a)" d="M40,18 L12,18 C10.9,18 10,17.1 10,16 L10,14 C10,12.9 10.9,12 12,12 L40,12 C41.1,12 42,12.9 42,14 L42,16 C42,17.1 41.1,18 40,18 Z"/>
    <path fill="url(#add_quiz-c)" d="M4,18 L2,18 C0.9,18 0,17.1 0,16 L0,14 C0,12.9 0.9,12 2,12 L4,12 C5.1,12 6,12.9 6,14 L6,16 C6,17.1 5.1,18 4,18 Z"/>
    <path fill="url(#add_quiz-a)" d="M40,30 L12,30 C10.9,30 10,29.1 10,28 L10,26 C10,24.9 10.9,24 12,24 L40,24 C41.1,24 42,24.9 42,26 L42,28 C42,29.1 41.1,30 40,30 Z"/>
    <path fill="url(#add_quiz-c)" d="M4,30 L2,30 C0.9,30 0,29.1 0,28 L0,26 C0,24.9 0.9,24 2,24 L4,24 C5.1,24 6,24.9 6,26 L6,28 C6,29.1 5.1,30 4,30 Z"/>
    <circle cx="35" cy="29" r="10" fill="url(#add_quiz-d)"/>
    <path fill="#FFF" d="M35.5,34 L34.5,34 C34.224,34 34,33.776 34,33.5 L34,24.5 C34,24.224 34.224,24 34.5,24 L35.5,24 C35.776,24 36,24.224 36,24.5 L36,33.5 C36,33.776 35.776,34 35.5,34 Z"/>
    <path fill="#FFF" d="M30,29.5 L30,28.5 C30,28.224 30.224,28 30.5,28 L39.5,28 C39.776,28 40,28.224 40,28.5 L40,29.5 C40,29.776 39.776,30 39.5,30 L30.5,30 C30.224,30 30,29.776 30,29.5 Z"/>
  </g>
</svg>
